<?xml version="1.0" standalone="no"?>
<!DOCTYPE svg PUBLIC "-//W3C//DTD SVG 20010904//EN"
 "http://www.w3.org/TR/2001/REC-SVG-20010904/DTD/svg10.dtd">
<svg version="1.0" xmlns="http://www.w3.org/2000/svg"
 width="5000.000000pt" height="5000.000000pt" viewBox="0 0 5000.000000 5000.000000"
 preserveAspectRatio="xMidYMid meet">
<metadata>
Created by potrace 1.16, written by Peter Selinger 2001-2019
</metadata>
<g transform="translate(0.000000,5000.000000) scale(0.100000,-0.100000)"
fill="#000000" stroke="none">
<path d="M24855 44613 c-4775 -89 -9351 -1876 -12914 -5042 -3531 -3136 -5816
-7398 -6445 -12021 -73 -535 -115 -974 -157 -1660 -17 -276 -23 -1413 -10
-1756 96 -2443 612 -4743 1565 -6966 1182 -2759 2988 -5216 5291 -7199 3033
-2611 6801 -4254 10785 -4703 840 -95 1596 -132 2505 -123 587 6 752 12 1250
47 2963 209 5828 1072 8435 2542 2648 1493 4975 3639 6679 6157 517 765 902
1424 1319 2261 205 411 298 610 462 990 894 2071 1419 4274 1555 6530 38 631
45 1589 15 2140 -73 1383 -245 2554 -556 3800 -756 3031 -2220 5829 -4284
8185 -524 599 -1217 1294 -1815 1821 -1351 1192 -2782 2149 -4405 2948 -2880
1417 -6017 2110 -9275 2049z m1390 -4087 c1490 -99 2825 -361 4185 -821 3267
-1107 6080 -3235 8037 -6080 1556 -2262 2487 -4924 2678 -7655 48 -698 48
-1509 0 -2185 -131 -1820 -566 -3552 -1312 -5223 -133 -299 -433 -896 -601
-1197 -978 -1755 -2283 -3306 -3860 -4588 -2275 -1849 -5028 -3039 -7942
-3431 -758 -102 -1349 -141 -2170 -140 -559 0 -771 7 -1210 39 -3928 294
-7595 2015 -10325 4845 -1456 1509 -2587 3272 -3338 5205 -922 2375 -1241
4954 -926 7490 310 2492 1230 4885 2671 6944 1975 2823 4786 4919 8058 6008
1390 462 2821 727 4345 803 280 14 1433 4 1710 -14z"/>
<path d="M23155 36869 c-1756 -58 -3620 -254 -5768 -604 -153 -25 -280 -45
-282 -45 -3 0 -5 -5080 -5 -11290 l0 -11290 2020 0 2020 0 0 4830 0 4830 1828
0 c1005 0 1926 -5 2047 -10 527 -23 991 -123 1431 -311 926 -393 1741 -1191
2406 -2354 897 -1569 1545 -3786 1966 -6720 l37 -260 2028 -3 c1678 -2 2027 0
2027 11 0 19 -159 976 -225 1351 -259 1478 -578 2936 -881 4018 -411 1470
-807 2459 -1337 3343 -517 861 -1153 1596 -1886 2178 -69 54 -130 103 -134
107 -5 4 40 34 100 66 727 387 1272 776 1770 1268 311 306 526 564 748 896
543 815 831 1668 932 2760 24 261 24 892 0 1150 -46 490 -131 904 -272 1325
-498 1490 -1648 2699 -3370 3545 -1484 729 -3250 1122 -5435 1210 -279 11
-1419 11 -1765 -1z m1480 -3369 c2063 -60 3466 -421 4375 -1124 125 -97 380
-347 474 -466 339 -429 535 -949 587 -1558 17 -203 6 -641 -20 -838 -52 -384
-139 -680 -291 -989 -560 -1139 -1870 -1788 -3940 -1949 -478 -38 -541 -39
-2617 -43 l-2063 -4 0 3436 c0 2740 3 3436 13 3440 17 5 430 33 752 50 853 45
2045 65 2730 45z"/>
</g>
</svg>
